PathFileType	4	(x/y/z)	S01_SL_Cal.trc
DataRate	CameraRate	NumFrames	NumMarkers	Units	OrigDataRate	OrigDataStartFrame	OrigNumFrames
240	240	9	51	mm	240	601	2400
Frame#	Time	Sternum			R.Acromium			L.Acromium			Top.Head			R.ASIS			L.ASIS			R.PSIS			L.PSIS			R.Great.Tro			L.Great.Tro			R.Iliac.Crest			L.Iliac.Crest			V.Sacral			R.Thigh.Upper.Post			R.Thigh.Lower.Ant			R.Thigh.Lower.Post			R.Thigh.Upper.Ant			R.Knee.Lat			R.Knee.Med			R.Shank.Upper.Post			R.Shank.Lower.Ant			R.Shank.Lower.Post			R.Shank.Upper.Ant			R.Ankle.Lat			R.Ankle.Med			R.Heel.Upper			R.Heel.Med			R.Heel.Lat			R.Toe.Lat			R.Toe.Med			R.Toe.Tip			L.Thigh.Upper.Post			L.Thigh.Lower.Ant			L.Thigh.Lower.Post			L.Thigh.Upper.Ant			L.Knee.Lat			L.Knee.Med			L.Shank.Upper.Post			L.Shank.Lower.Ant			L.Shank.Lower.Post			L.Shank.Upper.Ant			L.Ankle.Lat			L.Ankle.Med			L.Heel.Upper			L.Heel.Med			L.Heel.Lat			L.Toe.Lat			L.Toe.Med			L.Toe.Tip			Cervical.Spine			Back			
		X1	Y1	Z1	X2	Y2	Z2	X3	Y3	Z3	X4	Y4	Z4	X5	Y5	Z5	X6	Y6	Z6	X7	Y7	Z7	X8	Y8	Z8	X9	Y9	Z9	X10	Y10	Z10	X11	Y11	Z11	X12	Y12	Z12	X13	Y13	Z13	X14	Y14	Z14	X15	Y15	Z15	X16	Y16	Z16	X17	Y17	Z17	X18	Y18	Z18	X19	Y19	Z19	X20	Y20	Z20	X21	Y21	Z21	X22	Y22	Z22	X23	Y23	Z23	X24	Y24	Z24	X25	Y25	Z25	X26	Y26	Z26	X27	Y27	Z27	X28	Y28	Z28	X29	Y29	Z29	X30	Y30	Z30	X31	Y31	Z31	X32	Y32	Z32	X33	Y33	Z33	X34	Y34	Z34	X35	Y35	Z35	X36	Y36	Z36	X37	Y37	Z37	X38	Y38	Z38	X39	Y39	Z39	X40	Y40	Z40	X41	Y41	Z41	X42	Y42	Z42	X43	Y43	Z43	X44	Y44	Z44	X45	Y45	Z45	X46	Y46	Z46	X47	Y47	Z47	X48	Y48	Z48	X49	Y49	Z49	X50	Y50	Z50	X51	Y51	Z51	

601	2.5	721.08	1313.3	261.45	575.77	1553.6	442.88	531.79	1563.2	118.47	507.35	1868.1	282.06	705.75	1046	420.38	696.39	1046.9	149.4	463.81	1079	334.54	457.82	1077.2	231.11	625.17	992.09	503.21	583.06	995.25	74.504	610.61	1141.9	485.6	577.22	1125	81.442	448.89	1041.5	281.3	582.77	695.13	497.41	642.42	615.44	472.18	574.44	606.72	482.08	654.62	704.55	487.09	588.39	537.27	478.09	592.19	527.44	336.08	507.84	390.02	514.24	558.74	296.99	481.37	494.88	319.86	508.61	567.81	369.43	492.49	475.68	111.35	490.24	508.83	109.57	398.47	408.32	77.765	435.92	420.01	46.748	407.27	416.47	48.321	471.85	605.07	34.289	529.03	636.42	40.031	405.8	699.86	54.982	460.97	518.23	725.84	85.761	592.36	645.09	73.424	517.22	635.19	96.36	584.54	739.8	61.145	551.63	541.34	80.149	586.1	529.21	216.98	480.72	411.04	56.541	537.76	316.13	66.745	476.74	333.25	53.315	542.53	393.08	65.04	458.72	112.12	75.481	491.09	118.11	168.64	390.81	78.702	120.37	401.63	51.32	152.63	398.76	52.94	90.704	602.58	37.548	41.687	628.35	47.123	163.34	689.9	58.4	112.49	470.91	1596.3	289.72	419.91	1275.2	307.24
602	2.5042	721.05	1313.3	261.47	575.74	1553.6	442.89	531.77	1563.2	118.47	507.36	1868.1	282.07	705.72	1046	420.4	696.37	1046.9	149.42	463.78	1079	334.55	457.79	1077.2	231.12	625.14	992.09	503.23	583.04	995.25	74.52	610.57	1141.9	485.61	577.2	1125	81.456	448.87	1041.5	281.32	582.76	695.13	497.42	642.41	615.44	472.19	574.42	606.72	482.09	654.61	704.55	487.1	588.38	537.27	478.1	592.18	527.44	336.09	507.83	390.01	514.25	558.73	296.99	481.38	494.87	319.86	508.62	567.81	369.43	492.5	475.68	111.35	490.25	508.82	109.57	398.47	408.31	77.76	435.93	420.01	46.743	407.28	416.47	48.316	471.85	605.07	34.29	529.03	636.41	40.031	405.8	699.86	54.985	460.97	518.22	725.84	85.773	592.35	645.09	73.437	517.22	635.18	96.37	584.54	739.8	61.158	551.63	541.34	80.16	586.1	529.2	216.99	480.72	411.04	56.548	537.76	316.13	66.752	476.74	333.25	53.321	542.53	393.08	65.048	458.72	112.11	75.482	491.09	118.11	168.64	390.81	78.7	120.37	401.63	51.319	152.64	398.76	52.939	90.704	602.58	37.548	41.688	628.34	47.123	163.34	689.9	58.4	112.49	470.89	1596.3	289.72	419.88	1275.2	307.25
603	2.5083	721.02	1313.3	261.48	575.71	1553.6	442.9	531.75	1563.2	118.48	507.37	1868.1	282.08	705.68	1046	420.42	696.35	1046.9	149.44	463.76	1079	334.56	457.77	1077.2	231.14	625.11	992.09	503.25	583.02	995.24	74.536	610.54	1141.9	485.63	577.17	1125	81.47	448.84	1041.5	281.33	582.74	695.13	497.44	642.39	615.45	472.2	574.41	606.72	482.11	654.59	704.56	487.11	588.37	537.27	478.11	592.17	527.44	336.1	507.82	390.01	514.26	558.73	296.98	481.38	494.87	319.85	508.63	567.8	369.42	492.51	475.68	111.35	490.25	508.82	109.57	398.47	408.31	77.755	435.93	420.01	46.739	407.28	416.47	48.311	471.85	605.07	34.29	529.03	636.41	40.031	405.8	699.85	54.987	460.97	518.21	725.84	85.785	592.35	645.09	73.45	517.21	635.18	96.381	584.53	739.81	61.171	551.63	541.34	80.171	586.11	529.2	217	480.72	411.04	56.555	537.76	316.13	66.759	476.74	333.25	53.326	542.53	393.08	65.057	458.72	112.11	75.483	491.09	118.1	168.64	390.81	78.699	120.37	401.63	51.318	152.64	398.76	52.938	90.704	602.58	37.548	41.688	628.34	47.123	163.34	689.9	58.401	112.49	470.86	1596.3	289.73	419.85	1275.2	307.26
604	2.5125	720.99	1313.3	261.5	575.69	1553.6	442.91	531.74	1563.2	118.49	507.38	1868.1	282.09	705.65	1046	420.44	696.33	1046.9	149.46	463.73	1079	334.58	457.75	1077.2	231.15	625.08	992.08	503.27	583	995.24	74.551	610.5	1141.9	485.65	577.15	1125	81.484	448.82	1041.5	281.34	582.73	695.13	497.45	642.38	615.45	472.21	574.4	606.72	482.12	654.57	704.56	487.12	588.36	537.27	478.12	592.15	527.45	336.12	507.81	390	514.27	558.72	296.98	481.39	494.87	319.85	508.64	567.79	369.42	492.52	475.67	111.35	490.25	508.82	109.57	398.48	408.31	77.751	435.93	420	46.735	407.28	416.47	48.307	471.85	605.07	34.291	529.04	636.41	40.031	405.8	699.85	54.99	460.97	518.21	725.84	85.797	592.35	645.09	73.463	517.21	635.18	96.391	584.53	739.81	61.184	551.64	541.34	80.181	586.11	529.2	217.01	480.72	411.04	56.562	537.76	316.12	66.766	476.74	333.25	53.332	542.54	393.08	65.065	458.72	112.11	75.483	491.09	118.1	168.65	390.81	78.698	120.37	401.63	51.316	152.64	398.76	52.937	90.704	602.58	37.548	41.689	628.34	47.123	163.35	689.9	58.402	112.49	470.84	1596.3	289.74	419.82	1275.2	307.27
605	2.5167	720.96	1313.3	261.51	575.67	1553.6	442.92	531.72	1563.2	118.5	507.38	1868.1	282.1	705.62	1046	420.47	696.31	1046.9	149.48	463.7	1079	334.59	457.72	1077.2	231.16	625.06	992.08	503.29	582.99	995.24	74.567	610.46	1141.9	485.66	577.13	1125	81.498	448.79	1041.5	281.35	582.72	695.13	497.46	642.37	615.45	472.22	574.39	606.72	482.13	654.56	704.56	487.13	588.35	537.27	478.13	592.14	527.45	336.13	507.81	389.99	514.27	558.72	296.98	481.4	494.86	319.85	508.64	567.79	369.42	492.52	475.67	111.34	490.26	508.82	109.57	398.48	408.31	77.747	435.93	420	46.732	407.28	416.47	48.303	471.85	605.07	34.291	529.04	636.41	40.03	405.8	699.85	54.993	460.97	518.2	725.83	85.809	592.35	645.09	73.475	517.21	635.18	96.401	584.52	739.81	61.197	551.64	541.34	80.192	586.11	529.2	217.02	480.73	411.04	56.57	537.77	316.12	66.773	476.75	333.25	53.338	542.54	393.07	65.073	458.72	112.11	75.484	491.09	118.1	168.65	390.81	78.697	120.36	401.63	51.315	152.64	398.76	52.936	90.704	602.58	37.548	41.691	628.34	47.123	163.35	689.9	58.402	112.49	470.82	1596.3	289.75	419.8	1275.2	307.28
606	2.5208	720.93	1313.3	261.53	575.64	1553.6	442.93	531.71	1563.2	118.5	507.39	1868.1	282.11	705.58	1046	420.49	696.29	1046.9	149.49	463.68	1079	334.61	457.7	1077.2	231.18	625.03	992.08	503.31	582.97	995.24	74.583	610.43	1141.9	485.68	577.1	1124.9	81.511	448.77	1041.5	281.37	582.7	695.13	497.47	642.36	615.45	472.23	574.38	606.72	482.14	654.55	704.56	487.14	588.34	537.27	478.14	592.13	527.45	336.14	507.8	389.99	514.28	558.71	296.97	481.4	494.86	319.84	508.65	567.78	369.41	492.53	475.67	111.34	490.26	508.82	109.57	398.48	408.31	77.744	435.93	420	46.729	407.28	416.47	48.299	471.86	605.06	34.29	529.04	636.41	40.03	405.8	699.85	54.995	460.97	518.2	725.83	85.82	592.35	645.09	73.488	517.21	635.17	96.411	584.52	739.81	61.21	551.64	541.34	80.202	586.12	529.2	217.03	480.73	411.04	56.577	537.77	316.12	66.78	476.75	333.25	53.343	542.54	393.07	65.082	458.72	112.11	75.485	491.09	118.1	168.65	390.81	78.697	120.37	401.63	51.314	152.64	398.76	52.936	90.704	602.58	37.548	41.692	628.34	47.123	163.35	689.9	58.402	112.49	470.8	1596.3	289.75	419.77	1275.2	307.29
607	2.525	720.9	1313.3	261.54	575.62	1553.6	442.94	531.69	1563.2	118.51	507.39	1868.1	282.12	705.55	1046	420.51	696.27	1046.9	149.51	463.65	1079	334.62	457.68	1077.2	231.19	625.01	992.08	503.33	582.95	995.23	74.599	610.39	1141.9	485.69	577.08	1124.9	81.524	448.75	1041.5	281.38	582.69	695.13	497.49	642.35	615.45	472.24	574.37	606.72	482.16	654.54	704.57	487.15	588.33	537.26	478.16	592.12	527.45	336.15	507.8	389.98	514.29	558.71	296.97	481.41	494.86	319.84	508.66	567.78	369.41	492.54	475.66	111.34	490.26	508.81	109.57	398.48	408.3	77.74	435.93	420	46.727	407.28	416.47	48.296	471.86	605.06	34.289	529.04	636.41	40.03	405.8	699.85	54.997	460.97	518.2	725.83	85.832	592.34	645.09	73.5	517.21	635.17	96.421	584.51	739.82	61.223	551.64	541.34	80.213	586.12	529.19	217.05	480.73	411.03	56.585	537.77	316.12	66.787	476.75	333.25	53.349	542.55	393.07	65.091	458.72	112.11	75.487	491.09	118.1	168.65	390.81	78.696	120.37	401.63	51.312	152.64	398.76	52.935	90.704	602.58	37.549	41.693	628.34	47.123	163.35	689.9	58.402	112.49	470.77	1596.3	289.76	419.74	1275.2	307.31
608	2.5292	720.87	1313.3	261.55	575.6	1553.6	442.95	531.68	1563.2	118.51	507.4	1868.1	282.13	705.51	1046	420.53	696.25	1046.9	149.53	463.63	1079	334.64	457.66	1077.2	231.21	624.98	992.08	503.35	582.93	995.23	74.614	610.36	1141.9	485.71	577.05	1124.9	81.538	448.72	1041.5	281.39	582.68	695.13	497.5	642.34	615.46	472.25	574.36	606.72	482.17	654.52	704.57	487.16	588.33	537.26	478.17	592.11	527.46	336.17	507.79	389.98	514.3	558.71	296.97	481.42	494.85	319.84	508.67	567.77	369.41	492.55	475.66	111.34	490.27	508.81	109.57	398.48	408.3	77.738	435.93	420	46.725	407.29	416.46	48.294	471.86	605.06	34.288	529.04	636.41	40.03	405.8	699.85	55	460.97	518.19	725.82	85.844	592.34	645.09	73.513	517.21	635.17	96.431	584.51	739.82	61.236	551.65	541.33	80.224	586.12	529.19	217.06	480.73	411.03	56.592	537.77	316.12	66.794	476.76	333.25	53.355	542.55	393.07	65.099	458.72	112.11	75.488	491.09	118.1	168.65	390.81	78.696	120.37	401.63	51.311	152.64	398.76	52.934	90.704	602.58	37.549	41.694	628.34	47.122	163.35	689.9	58.402	112.49	470.75	1596.3	289.77	419.71	1275.2	307.32
609	2.5333	720.84	1313.3	261.56	575.58	1553.6	442.96	531.67	1563.2	118.52	507.4	1868.1	282.15	705.48	1046	420.55	696.23	1046.9	149.54	463.6	1079	334.65	457.64	1077.2	231.22	624.96	992.08	503.36	582.91	995.23	74.63	610.33	1141.9	485.72	577.03	1124.9	81.551	448.7	1041.5	281.41	582.67	695.13	497.51	642.33	615.46	472.26	574.35	606.72	482.18	654.51	704.57	487.17	588.32	537.26	478.18	592.1	527.46	336.18	507.79	389.97	514.31	558.71	296.97	481.42	494.85	319.83	508.67	567.77	369.41	492.55	475.66	111.34	490.27	508.81	109.57	398.48	408.3	77.735	435.94	420	46.724	407.29	416.46	48.291	471.86	605.06	34.287	529.04	636.41	40.031	405.8	699.85	55.002	460.97	518.19	725.82	85.855	592.34	645.09	73.526	517.21	635.16	96.441	584.51	739.82	61.248	551.65	541.33	80.234	586.13	529.19	217.07	480.74	411.03	56.6	537.78	316.12	66.801	476.76	333.25	53.361	542.55	393.07	65.108	458.72	112.11	75.489	491.09	118.09	168.65	390.81	78.695	120.37	401.63	51.311	152.64	398.76	52.934	90.705	602.58	37.549	41.695	628.34	47.122	163.35	689.9	58.402	112.49	470.73	1596.3	289.77	419.68	1275.2	307.33
